<svg width="21" height="21" viewBox="0 0 21 21" fill="none" xmlns="http://www.w3.org/2000/svg">
<path d="M19.9263 8.12105C19.9092 8.03591 19.8578 7.9616 19.7841 7.91579C19.7103 7.86998 19.6209 7.85675 19.537 7.87916L15.9945 8.82835C15.8391 8.87 15.7403 9.02235 15.7657 9.18122C15.8135 9.48061 15.8377 9.78637 15.8377 10.09C15.8377 10.9054 15.6698 11.6932 15.3386 12.4315C15.2727 12.5785 15.3286 12.7515 15.4681 12.8321L18.6435 14.6653C18.6917 14.6931 18.7459 14.7074 18.8005 14.7074C18.8309 14.7074 18.8616 14.7029 18.8912 14.6939C18.9743 14.6688 19.0432 14.6106 19.0818 14.5329C19.7708 13.1445 20.1202 11.6497 20.1202 10.09C20.1202 9.42856 20.055 8.76609 19.9263 8.12105ZM18.6627 13.9513L16.0222 12.4267C16.3167 11.6836 16.4658 10.8989 16.4658 10.09C16.4658 9.84792 16.4519 9.60454 16.4243 9.3634L19.37 8.57414C19.4511 9.07366 19.4921 9.58217 19.4921 10.09C19.4921 11.4393 19.2132 12.7366 18.6627 13.9513ZM10.6967 4.39217C12.8271 4.60878 14.698 6.04414 15.4629 8.0489C15.5103 8.17307 15.6288 8.25103 15.7562 8.25103C15.7831 8.25103 15.8105 8.24753 15.8376 8.24031L19.3798 7.2912C19.4636 7.26875 19.5344 7.21261 19.5753 7.13614C19.6163 7.05967 19.6238 6.96966 19.596 6.88742C18.9662 5.02155 17.8071 3.39372 16.2439 2.17991C14.6551 0.946046 12.7547 0.227089 10.7482 0.100766C10.6616 0.0950744 10.5768 0.125929 10.5135 0.185243C10.4503 0.244636 10.4145 0.327465 10.4145 0.414179V4.0797C10.4145 4.24084 10.5364 4.37584 10.6967 4.39217ZM11.0425 0.754521C14.6011 1.10413 17.6258 3.4243 18.8883 6.77272L15.9426 7.56198C15.5176 6.58257 14.8507 5.72347 14.0012 5.06469C13.1368 4.39429 12.1191 3.96096 11.0425 3.80244V0.754521ZM4.22581 11.3517C4.38122 11.3101 4.48002 11.1578 4.45467 10.9989C4.40685 10.6996 4.38263 10.3938 4.38263 10.0901C4.38263 7.13972 6.59277 4.69012 9.52356 4.39221C9.68388 4.37592 9.80584 4.24092 9.80584 4.07978V0.414218C9.80584 0.327504 9.77 0.244676 9.7068 0.185283C9.6436 0.125929 9.559 0.0951529 9.47209 0.100806C6.93445 0.260574 4.57357 1.37047 2.8244 3.22614C1.06758 5.08993 0.100098 7.52759 0.100098 10.09C0.100098 10.7509 0.165418 11.4133 0.294214 12.059C0.311251 12.1441 0.362675 12.2184 0.436435 12.2642C0.486643 12.2954 0.544151 12.3115 0.60221 12.3115C0.629413 12.3115 0.656735 12.308 0.683468 12.3009L4.22581 11.3517ZM9.17776 0.75456V3.8024C7.72929 4.01564 6.3985 4.72411 5.40546 5.81682C4.34083 6.98827 3.75451 8.50587 3.75451 10.09C3.75451 10.3322 3.76841 10.5756 3.79593 10.8166L0.850459 11.6058C0.76924 11.1059 0.728179 10.5975 0.728179 10.09C0.728179 5.2623 4.41309 1.22488 9.17776 0.75456ZM11.3718 15.9744C11.3302 15.8189 11.1777 15.7201 11.019 15.7456C10.7197 15.7933 10.4139 15.8176 10.1102 15.8176C7.74986 15.8176 5.59875 14.3361 4.75748 12.1312C4.70009 11.9807 4.53812 11.8982 4.38279 11.9397L0.839978 12.8891C0.756168 12.9115 0.685391 12.9676 0.644448 13.0441C0.603466 13.1206 0.595968 13.2106 0.623721 13.2928C1.99773 17.3645 5.81006 20.1001 10.1101 20.1001C10.7716 20.1001 11.4341 20.0348 12.0791 19.9061C12.1643 19.8891 12.2386 19.8376 12.2844 19.7639C12.3302 19.6901 12.3435 19.6007 12.321 19.5168L11.3718 15.9744ZM10.1101 19.472C6.19194 19.472 2.70581 17.0487 1.33149 13.4076L4.2777 12.6182C4.74441 13.6953 5.49626 14.6174 6.46527 15.297C7.53662 16.0485 8.79702 16.4457 10.1102 16.4457C10.3524 16.4457 10.5958 16.4318 10.8368 16.4043L11.6261 19.3499C11.1265 19.431 10.618 19.472 10.1101 19.472ZM18.3383 15.192L15.1627 13.3585C15.0234 13.2781 14.8459 13.316 14.7514 13.4462C14.0933 14.3544 13.1942 15.0448 12.1513 15.4428C12.0009 15.5001 11.9182 15.662 11.9599 15.8174L12.9091 19.36C12.9316 19.4438 12.9877 19.5146 13.0642 19.5555C13.1103 19.5802 13.1612 19.5927 13.2124 19.5927C13.2462 19.5927 13.2802 19.5872 13.3129 19.5762C15.3956 18.8732 17.2174 17.4746 18.4426 15.6382C18.4908 15.5659 18.5069 15.477 18.4871 15.3925C18.4674 15.3079 18.4135 15.2354 18.3383 15.192ZM13.4276 18.8682L12.6383 15.9225C13.5975 15.5066 14.4361 14.8627 15.0885 14.0409L17.7289 15.5653C16.6517 17.0602 15.1436 18.2182 13.4276 18.8682Z" fill="#475569" stroke="#475569" stroke-width="0.2"/>
<path d="M10.1101 9.6215C10.8121 9.6215 11.3813 9.05237 11.3813 8.3503C11.3813 7.64824 10.8121 7.0791 10.1101 7.0791C9.408 7.0791 8.83887 7.64824 8.83887 8.3503C8.83887 9.05237 9.408 9.6215 10.1101 9.6215Z" stroke="#475569" stroke-width="0.8"/>
<path d="M12.1756 12.165H8.04422C8.02335 12.165 8.00268 12.1609 7.9834 12.153C7.96412 12.145 7.94659 12.1333 7.93184 12.1185C7.91708 12.1038 7.90537 12.0862 7.89739 12.067C7.88941 12.0477 7.88531 12.027 7.88532 12.0061V11.1371C7.88395 11.0453 7.90314 10.9544 7.94149 10.871C7.97983 10.7875 8.03635 10.7138 8.10691 10.655C8.67222 10.1929 9.37992 9.94043 10.1101 9.94043C10.8402 9.94043 11.5479 10.1929 12.1132 10.655C12.1837 10.7138 12.2401 10.7876 12.2784 10.871C12.3167 10.9545 12.3359 11.0454 12.3345 11.1371V12.0061C12.3345 12.027 12.3304 12.0477 12.3225 12.067C12.3145 12.0862 12.3028 12.1038 12.288 12.1185C12.2733 12.1333 12.2557 12.145 12.2364 12.153C12.2172 12.1609 12.1965 12.165 12.1756 12.165Z" stroke="#475569" stroke-width="0.8"/>
</svg>
