<svg width="20" height="20" viewBox="0 0 20 20" fill="none" xmlns="http://www.w3.org/2000/svg">
<path d="M5.17395 10.2701H3.66728C3.18478 10.2701 2.79395 10.6617 2.79395 11.1434V16.8351C2.79395 17.3167 3.18561 17.7084 3.66728 17.7084H5.17478C5.65811 17.7084 6.04895 17.3167 6.04895 16.8342V11.1434C6.04872 10.9116 5.95655 10.6894 5.79266 10.5255C5.62877 10.3616 5.40655 10.2695 5.17478 10.2692M10.7531 2.29175H9.24645C8.76311 2.29175 8.37228 2.68341 8.37228 3.16591V16.8334C8.37228 17.3167 8.76395 17.7076 9.24728 17.7076H10.7531C11.2364 17.7076 11.6273 17.3159 11.6273 16.8334V3.16675C11.6273 2.68341 11.2356 2.29258 10.7523 2.29258M16.3323 6.60591H14.8248C14.3414 6.60591 13.9506 6.99758 13.9506 7.48092V16.8334C13.9506 17.3167 14.3423 17.7076 14.8248 17.7076H16.3314C16.5632 17.7074 16.7854 17.6152 16.9493 17.4513C17.1132 17.2874 17.2054 17.0652 17.2056 16.8334V7.48008C17.2056 6.99675 16.8139 6.60591 16.3306 6.60591" stroke="#475569" stroke-width="1.3" stroke-linecap="round" stroke-linejoin="round"/>
</svg>
