<svg width="92" height="86" viewBox="0 0 92 86" fill="none" xmlns="http://www.w3.org/2000/svg">
<path d="M69.124 32.5005V21.2505C69.124 17.9353 67.8071 14.7559 65.4629 12.4117C63.1187 10.0674 59.9392 8.75049 56.624 8.75049H35.374C32.0588 8.75049 28.8794 10.0674 26.5352 12.4117C24.191 14.7559 22.874 17.9353 22.874 21.2505V38.7505C22.874 40.392 23.1973 42.0175 23.8255 43.534C24.4537 45.0506 25.3745 46.4286 26.5352 47.5893C28.8794 49.9335 32.0588 51.2505 35.374 51.2505H51.024" stroke="url(#paint0_linear_8615_6819)" stroke-width="2" stroke-linecap="round" stroke-linejoin="round"/>
<path d="M23.5229 42.5002L30.3729 34.5002C31.2726 33.6067 32.4532 33.0515 33.7151 32.9285C34.9771 32.8055 36.2427 33.1223 37.2979 33.8252C38.3532 34.5281 39.6188 34.8449 40.8807 34.7219C42.1427 34.5989 43.3233 34.0437 44.2229 33.1502L50.0479 27.3252C51.7217 25.6458 53.9377 24.6157 56.3005 24.4188C58.6634 24.2219 61.0193 24.871 62.948 26.2502L69.1229 31.0252M36.0229 25.4252C36.5679 25.4219 37.1069 25.3113 37.6092 25.0997C38.1114 24.8881 38.5671 24.5797 38.9501 24.192C39.3332 23.8043 39.6361 23.345 39.8416 22.8402C40.0471 22.3355 40.1512 21.7952 40.1479 21.2502C40.1447 20.7052 40.0341 20.1662 39.8225 19.664C39.6109 19.1617 39.3024 18.7061 38.9148 18.323C38.5271 17.94 38.0677 17.6371 37.563 17.4315C37.0582 17.226 36.5179 17.1219 35.9729 17.1252C34.8723 17.1318 33.8194 17.5754 33.0458 18.3584C32.2722 19.1413 31.8413 20.1996 31.8479 21.3002C31.8546 22.4008 32.2982 23.4538 33.0811 24.2274C33.8641 25.001 34.9223 25.4318 36.0229 25.4252Z" stroke="url(#paint1_linear_8615_6819)" stroke-width="2" stroke-linecap="round" stroke-linejoin="round"/>
<path d="M62.7666 37.5V50" stroke="url(#paint2_linear_8615_6819)" stroke-width="2" stroke-miterlimit="10" stroke-linecap="round"/>
<path d="M68.4977 42.7634L63.5802 37.8459C63.4734 37.7385 63.3464 37.6534 63.2065 37.5952C63.0666 37.5371 62.9167 37.5072 62.7652 37.5072C62.6138 37.5072 62.4638 37.5371 62.3239 37.5952C62.1841 37.6534 62.0571 37.7385 61.9502 37.8459L57.0327 42.7634" stroke="url(#paint3_linear_8615_6819)" stroke-width="2" stroke-linecap="round" stroke-linejoin="round"/>
<path d="M7.73118 71.8182H9.57564V78.4702C9.57564 79.1993 9.40329 79.8407 9.05859 80.3942C8.71721 80.9477 8.23662 81.3802 7.61683 81.6918C6.99704 82 6.27285 82.1541 5.44425 82.1541C4.61233 82.1541 3.88648 82 3.26669 81.6918C2.6469 81.3802 2.16631 80.9477 1.82493 80.3942C1.48355 79.8407 1.31286 79.1993 1.31286 78.4702V71.8182H3.15732V78.3161C3.15732 78.7403 3.25012 79.1181 3.43572 79.4496C3.62465 79.781 3.8898 80.0412 4.23118 80.2301C4.57256 80.4157 4.97692 80.5085 5.44425 80.5085C5.91158 80.5085 6.31593 80.4157 6.65732 80.2301C7.00201 80.0412 7.26716 79.781 7.45277 79.4496C7.63838 79.1181 7.73118 78.7403 7.73118 78.3161V71.8182ZM11.5009 84.8636V74.3636H13.2708V75.6264H13.3752C13.468 75.4408 13.5989 75.2436 13.7679 75.0348C13.937 74.8227 14.1657 74.642 14.454 74.4929C14.7424 74.3404 15.1103 74.2642 15.5577 74.2642C16.1477 74.2642 16.6796 74.415 17.1536 74.7166C17.6309 75.0149 18.0087 75.4574 18.2871 76.044C18.5688 76.6274 18.7097 77.3433 18.7097 78.1918C18.7097 79.0303 18.5721 79.7429 18.2971 80.3295C18.022 80.9162 17.6474 81.3636 17.1735 81.6719C16.6995 81.9801 16.1626 82.1342 15.5627 82.1342C15.1252 82.1342 14.7623 82.0613 14.4739 81.9155C14.1855 81.7696 13.9535 81.594 13.7779 81.3885C13.6055 81.1797 13.4713 80.9825 13.3752 80.7969H13.3006V84.8636H11.5009ZM13.2658 78.1818C13.2658 78.6757 13.3354 79.1082 13.4746 79.4794C13.6171 79.8506 13.821 80.1406 14.0861 80.3494C14.3546 80.5549 14.6794 80.6577 15.0605 80.6577C15.4583 80.6577 15.7914 80.5516 16.0598 80.3395C16.3283 80.1241 16.5305 79.8307 16.6664 79.4595C16.8056 79.085 16.8752 78.6591 16.8752 78.1818C16.8752 77.7079 16.8072 77.2869 16.6713 76.919C16.5355 76.5511 16.3333 76.2628 16.0648 76.054C15.7963 75.8452 15.4616 75.7408 15.0605 75.7408C14.6761 75.7408 14.3496 75.8419 14.0811 76.044C13.8127 76.2462 13.6088 76.5296 13.4696 76.8942C13.3337 77.2588 13.2658 77.688 13.2658 78.1818ZM22.0506 71.8182V82H20.2509V71.8182H22.0506ZM27.2322 82.1491C26.4865 82.1491 25.8402 81.9851 25.2933 81.657C24.7464 81.3288 24.3222 80.8698 24.0206 80.2798C23.7223 79.6899 23.5732 79.0005 23.5732 78.2116C23.5732 77.4228 23.7223 76.7318 24.0206 76.1385C24.3222 75.5452 24.7464 75.0845 25.2933 74.7564C25.8402 74.4283 26.4865 74.2642 27.2322 74.2642C27.978 74.2642 28.6243 74.4283 29.1712 74.7564C29.718 75.0845 30.1406 75.5452 30.4389 76.1385C30.7405 76.7318 30.8913 77.4228 30.8913 78.2116C30.8913 79.0005 30.7405 79.6899 30.4389 80.2798C30.1406 80.8698 29.718 81.3288 29.1712 81.657C28.6243 81.9851 27.978 82.1491 27.2322 82.1491ZM27.2422 80.7074C27.6465 80.7074 27.9846 80.5964 28.2564 80.3743C28.5282 80.1489 28.7304 79.8473 28.8629 79.4695C28.9988 79.0916 29.0668 78.6707 29.0668 78.2067C29.0668 77.7393 28.9988 77.3168 28.8629 76.9389C28.7304 76.5578 28.5282 76.2545 28.2564 76.0291C27.9846 75.8037 27.6465 75.6911 27.2422 75.6911C26.8279 75.6911 26.4832 75.8037 26.2081 76.0291C25.9363 76.2545 25.7325 76.5578 25.5966 76.9389C25.464 77.3168 25.3977 77.7393 25.3977 78.2067C25.3977 78.6707 25.464 79.0916 25.5966 79.4695C25.7325 79.8473 25.9363 80.1489 26.2081 80.3743C26.4832 80.5964 26.8279 80.7074 27.2422 80.7074ZM34.6163 82.1541C34.1324 82.1541 33.6966 82.0679 33.3088 81.8956C32.9243 81.7199 32.6194 81.4614 32.394 81.12C32.1719 80.7786 32.0609 80.3577 32.0609 79.8572C32.0609 79.4264 32.1404 79.0701 32.2995 78.7884C32.4586 78.5066 32.6757 78.2812 32.9508 78.1122C33.2259 77.9432 33.5358 77.8156 33.8805 77.7294C34.2285 77.6399 34.5881 77.5753 34.9593 77.5355C35.4068 77.4891 35.7697 77.4477 36.0481 77.4112C36.3265 77.3714 36.5287 77.3118 36.6547 77.2322C36.7839 77.1494 36.8485 77.0218 36.8485 76.8494V76.8196C36.8485 76.4451 36.7375 76.1551 36.5154 75.9496C36.2934 75.7441 35.9735 75.6413 35.5559 75.6413C35.1151 75.6413 34.7654 75.7375 34.5069 75.9297C34.2517 76.1219 34.0794 76.349 33.9899 76.6108L32.3095 76.3722C32.4421 75.9081 32.6608 75.5204 32.9657 75.2088C33.2707 74.8939 33.6435 74.6586 34.0843 74.5028C34.5252 74.3438 35.0124 74.2642 35.546 74.2642C35.9139 74.2642 36.2801 74.3073 36.6447 74.3935C37.0093 74.4796 37.3424 74.6222 37.644 74.821C37.9456 75.0166 38.1876 75.2834 38.3699 75.6214C38.5555 75.9595 38.6483 76.3821 38.6483 76.8892V82H36.9181V80.951H36.8585C36.7491 81.1631 36.595 81.362 36.3961 81.5476C36.2006 81.7299 35.9537 81.8774 35.6554 81.9901C35.3604 82.0994 35.014 82.1541 34.6163 82.1541ZM35.0836 80.8317C35.4449 80.8317 35.7581 80.7604 36.0233 80.6179C36.2884 80.4721 36.4922 80.2798 36.6348 80.0412C36.7806 79.8026 36.8535 79.5424 36.8535 79.2607V78.3608C36.7972 78.4072 36.7011 78.4503 36.5652 78.4901C36.4326 78.5298 36.2834 78.5646 36.1177 78.5945C35.952 78.6243 35.7879 78.6508 35.6255 78.674C35.4631 78.6972 35.3223 78.7171 35.2029 78.7337C34.9345 78.7701 34.6942 78.8298 34.4821 78.9126C34.2699 78.9955 34.1026 79.1115 33.9799 79.2607C33.8573 79.4065 33.796 79.5954 33.796 79.8274C33.796 80.1589 33.917 80.4091 34.1589 80.5781C34.4009 80.7472 34.7091 80.8317 35.0836 80.8317ZM43.2917 82.1342C42.6918 82.1342 42.1549 81.9801 41.6809 81.6719C41.207 81.3636 40.8324 80.9162 40.5574 80.3295C40.2823 79.7429 40.1447 79.0303 40.1447 78.1918C40.1447 77.3433 40.2839 76.6274 40.5623 76.044C40.844 75.4574 41.2235 75.0149 41.7008 74.7166C42.1781 74.415 42.71 74.2642 43.2967 74.2642C43.7441 74.2642 44.112 74.3404 44.4004 74.4929C44.6887 74.642 44.9174 74.8227 45.0865 75.0348C45.2555 75.2436 45.3864 75.4408 45.4792 75.6264H45.5538V71.8182H47.3585V82H45.5886V80.7969H45.4792C45.3864 80.9825 45.2522 81.1797 45.0765 81.3885C44.9009 81.594 44.6689 81.7696 44.3805 81.9155C44.0922 82.0613 43.7292 82.1342 43.2917 82.1342ZM43.7939 80.6577C44.175 80.6577 44.4998 80.5549 44.7683 80.3494C45.0368 80.1406 45.2406 79.8506 45.3798 79.4794C45.519 79.1082 45.5886 78.6757 45.5886 78.1818C45.5886 77.688 45.519 77.2588 45.3798 76.8942C45.2439 76.5296 45.0417 76.2462 44.7733 76.044C44.5081 75.8419 44.1816 75.7408 43.7939 75.7408C43.3928 75.7408 43.0581 75.8452 42.7896 76.054C42.5211 76.2628 42.319 76.5511 42.1831 76.919C42.0472 77.2869 41.9792 77.7079 41.9792 78.1818C41.9792 78.6591 42.0472 79.085 42.1831 79.4595C42.3223 79.8307 42.5261 80.1241 42.7946 80.3395C43.0663 80.5516 43.3994 80.6577 43.7939 80.6577ZM52.8285 82V71.8182H56.6467C57.4289 71.8182 58.0851 71.964 58.6154 72.2557C59.149 72.5473 59.5517 72.9484 59.8235 73.4588C60.0986 73.9659 60.2362 74.5426 60.2362 75.1889C60.2362 75.8419 60.0986 76.4219 59.8235 76.929C59.5484 77.4361 59.1424 77.8355 58.6055 78.1271C58.0685 78.4155 57.4073 78.5597 56.6218 78.5597H54.0913V77.0433H56.3732C56.8306 77.0433 57.2051 76.9638 57.4968 76.8047C57.7885 76.6456 58.0039 76.4268 58.1431 76.1484C58.2856 75.87 58.3569 75.5502 58.3569 75.1889C58.3569 74.8277 58.2856 74.5095 58.1431 74.2344C58.0039 73.9593 57.7868 73.7455 57.4918 73.593C57.2002 73.4373 56.824 73.3594 56.3633 73.3594H54.6729V82H52.8285ZM63.5584 77.5256V82H61.7587V71.8182H63.5186V75.6612H63.6081C63.7871 75.2304 64.0639 74.8906 64.4384 74.642C64.8162 74.3902 65.2968 74.2642 65.8801 74.2642C66.4105 74.2642 66.8728 74.3752 67.2672 74.5973C67.6616 74.8194 67.9666 75.1442 68.182 75.5717C68.4007 75.9993 68.5101 76.5213 68.5101 77.1378V82H66.7104V77.4162C66.7104 76.9025 66.5778 76.5031 66.3127 76.218C66.0508 75.9297 65.6829 75.7855 65.209 75.7855C64.8908 75.7855 64.6058 75.8551 64.3539 75.9943C64.1053 76.1302 63.9097 76.3274 63.7672 76.5859C63.628 76.8445 63.5584 77.1577 63.5584 77.5256ZM73.6756 82.1491C72.9299 82.1491 72.2836 81.9851 71.7367 81.657C71.1898 81.3288 70.7656 80.8698 70.464 80.2798C70.1657 79.6899 70.0165 79.0005 70.0165 78.2116C70.0165 77.4228 70.1657 76.7318 70.464 76.1385C70.7656 75.5452 71.1898 75.0845 71.7367 74.7564C72.2836 74.4283 72.9299 74.2642 73.6756 74.2642C74.4213 74.2642 75.0676 74.4283 75.6145 74.7564C76.1614 75.0845 76.584 75.5452 76.8823 76.1385C77.1839 76.7318 77.3347 77.4228 77.3347 78.2116C77.3347 79.0005 77.1839 79.6899 76.8823 80.2798C76.584 80.8698 76.1614 81.3288 75.6145 81.657C75.0676 81.9851 74.4213 82.1491 73.6756 82.1491ZM73.6855 80.7074C74.0899 80.7074 74.428 80.5964 74.6998 80.3743C74.9715 80.1489 75.1737 79.8473 75.3063 79.4695C75.4422 79.0916 75.5101 78.6707 75.5101 78.2067C75.5101 77.7393 75.4422 77.3168 75.3063 76.9389C75.1737 76.5578 74.9715 76.2545 74.6998 76.0291C74.428 75.8037 74.0899 75.6911 73.6855 75.6911C73.2712 75.6911 72.9266 75.8037 72.6515 76.0291C72.3797 76.2545 72.1758 76.5578 72.04 76.9389C71.9074 77.3168 71.8411 77.7393 71.8411 78.2067C71.8411 78.6707 71.9074 79.0916 72.04 79.4695C72.1758 79.8473 72.3797 80.1489 72.6515 80.3743C72.9266 80.5964 73.2712 80.7074 73.6855 80.7074ZM82.6754 74.3636V75.7557H78.2855V74.3636H82.6754ZM79.3693 72.5341H81.169V79.7031C81.169 79.9451 81.2055 80.1307 81.2784 80.2599C81.3546 80.3859 81.4541 80.4721 81.5767 80.5185C81.6993 80.5649 81.8352 80.5881 81.9844 80.5881C82.0971 80.5881 82.1998 80.5798 82.2926 80.5632C82.3887 80.5466 82.4616 80.5317 82.5114 80.5185L82.8146 81.9254C82.7185 81.9586 82.581 81.995 82.402 82.0348C82.2263 82.0746 82.0109 82.0978 81.7557 82.1044C81.3049 82.1177 80.8989 82.0497 80.5376 81.9006C80.1764 81.7481 79.8897 81.5128 79.6776 81.1946C79.4688 80.8764 79.366 80.4787 79.3693 80.0014V72.5341ZM87.4295 82.1491C86.6838 82.1491 86.0375 81.9851 85.4906 81.657C84.9437 81.3288 84.5195 80.8698 84.2179 80.2798C83.9196 79.6899 83.7704 79.0005 83.7704 78.2116C83.7704 77.4228 83.9196 76.7318 84.2179 76.1385C84.5195 75.5452 84.9437 75.0845 85.4906 74.7564C86.0375 74.4283 86.6838 74.2642 87.4295 74.2642C88.1752 74.2642 88.8216 74.4283 89.3684 74.7564C89.9153 75.0845 90.3379 75.5452 90.6362 76.1385C90.9378 76.7318 91.0886 77.4228 91.0886 78.2116C91.0886 79.0005 90.9378 79.6899 90.6362 80.2798C90.3379 80.8698 89.9153 81.3288 89.3684 81.657C88.8216 81.9851 88.1752 82.1491 87.4295 82.1491ZM87.4395 80.7074C87.8438 80.7074 88.1819 80.5964 88.4537 80.3743C88.7254 80.1489 88.9276 79.8473 89.0602 79.4695C89.1961 79.0916 89.264 78.6707 89.264 78.2067C89.264 77.7393 89.1961 77.3168 89.0602 76.9389C88.9276 76.5578 88.7254 76.2545 88.4537 76.0291C88.1819 75.8037 87.8438 75.6911 87.4395 75.6911C87.0252 75.6911 86.6805 75.8037 86.4054 76.0291C86.1336 76.2545 85.9297 76.5578 85.7939 76.9389C85.6613 77.3168 85.595 77.7393 85.595 78.2067C85.595 78.6707 85.6613 79.0916 85.7939 79.4695C85.9297 79.8473 86.1336 80.1489 86.4054 80.3743C86.6805 80.5964 87.0252 80.7074 87.4395 80.7074Z" fill="url(#paint4_linear_8615_6819)"/>
<defs>
<linearGradient id="paint0_linear_8615_6819" x1="22.874" y1="30.0005" x2="69.124" y2="30.0005" gradientUnits="userSpaceOnUse">
<stop stop-color="#4A90E2"/>
<stop offset="1" stop-color="#7D3AED"/>
</linearGradient>
<linearGradient id="paint1_linear_8615_6819" x1="23.5229" y1="29.8127" x2="69.1229" y2="29.8127" gradientUnits="userSpaceOnUse">
<stop stop-color="#4A90E2"/>
<stop offset="1" stop-color="#7D3AED"/>
</linearGradient>
<linearGradient id="paint2_linear_8615_6819" x1="62.7666" y1="43.75" x2="63.7666" y2="43.75" gradientUnits="userSpaceOnUse">
<stop stop-color="#4A90E2"/>
<stop offset="1" stop-color="#7D3AED"/>
</linearGradient>
<linearGradient id="paint3_linear_8615_6819" x1="57.0327" y1="40.1353" x2="68.4977" y2="40.1353" gradientUnits="userSpaceOnUse">
<stop stop-color="#4A90E2"/>
<stop offset="1" stop-color="#7D3AED"/>
</linearGradient>
<linearGradient id="paint4_linear_8615_6819" x1="0" y1="77" x2="92" y2="77" gradientUnits="userSpaceOnUse">
<stop stop-color="#4A90E2"/>
<stop offset="1" stop-color="#7D3AED"/>
</linearGradient>
</defs>
</svg>
